<svg width="2171" height="446" viewBox="0 0 2171 446" fill="none" xmlns="http://www.w3.org/2000/svg">
<path fill-rule="evenodd" clip-rule="evenodd" d="M0 133.8V44.6H54.275V312.2H108.55V401.4H162.825V0H217.1V178.4H271.375V446H325.65V178.4H379.925V312.2H434.2V267.6H488.475V223H542.75V223H597.025V223H651.3V44.6H705.575V267.6H759.85V312.2H814.125V446H868.4V44.6H922.675V89.2H976.95V89.2H1031.23V133.8H1085.5V356.8H1139.78V178.4H1194.05V89.2H1248.33V223H1302.6V356.8H1356.88V356.8H1411.15V133.8H1465.43V44.6H1519.7V446H1573.98V312.2H1628.25V401.4H1682.53V401.4H1736.8V133.8H1791.08V89.2H1845.35V178.4H1899.63V44.6H1953.9V356.8H2008.18V133.8H2062.45V89.2H2116.73V312.2H2171V446H2116.73V446H2062.45V446H2008.18V446H1953.9V446H1899.63V446H1845.35V446H1791.08V446H1736.8V446H1682.53V446H1628.25V446H1573.98V446H1519.7V446H1465.43V446H1411.15V446H1356.88V446H1302.6V446H1248.33V446H1194.05V446H1139.78V446H1085.5V446H1031.23V446H976.95V446H922.675V446H868.4V446H814.125V446H759.85V446H705.575V446H651.3V446H597.025V446H542.75V446H488.475V446H434.2V446H379.925V446H325.65V446H271.375V446H217.1V446H162.825V446H108.55V446H54.275V446H0V446V133.8Z" fill="url(#paint0_linear_40_141)"/>
<defs>
<linearGradient id="paint0_linear_40_141" x1="1084.56" y1="253.292" x2="1085" y2="446.001" gradientUnits="userSpaceOnUse">
<stop stop-color="#EBF0FC"/>
<stop offset="1" stop-color="#EBF0FC" stop-opacity="0"/>
</linearGradient>
</defs>
</svg>
