<svg width="21" height="42" viewBox="0 0 21 42" fill="none" xmlns="http://www.w3.org/2000/svg">
<path d="M7.76 32.198C6.752 32.198 5.894 32.066 5.186 31.802C4.49 31.538 3.962 31.1 3.602 30.488C3.242 29.864 3.062 29.036 3.062 28.004V19.706H5.546V28.094C5.546 28.802 5.732 29.312 6.104 29.624C6.488 29.936 7.04 30.092 7.76 30.092C8.516 30.092 9.086 29.936 9.47 29.624C9.854 29.312 10.046 28.802 10.046 28.094V19.706H12.53V27.968C12.53 29 12.344 29.828 11.972 30.452C11.612 31.076 11.078 31.526 10.37 31.802C9.674 32.066 8.804 32.198 7.76 32.198Z" fill="#B0C4F9"/>
<path d="M10.134 24V11.706H14.94C15.924 11.706 16.746 11.832 17.406 12.084C18.078 12.336 18.576 12.756 18.9 13.344C19.236 13.932 19.404 14.73 19.404 15.738C19.404 16.626 19.242 17.376 18.918 17.988C18.606 18.588 18.126 19.032 17.478 19.32L19.404 24H16.794L15.174 19.878H12.618V24H10.134ZM12.618 17.844H14.994C15.45 17.844 15.816 17.76 16.092 17.592C16.368 17.412 16.566 17.166 16.686 16.854C16.806 16.53 16.866 16.164 16.866 15.756C16.866 15.084 16.71 14.58 16.398 14.244C16.086 13.908 15.6 13.74 14.94 13.74H12.618V17.844Z" fill="#5474C7"/>
<path d="M4.5 15L8.39711 21.75H0.602886L4.5 15Z" fill="#B0C4F9"/>
</svg>
