<svg width="66" height="66" viewBox="0 0 66 66" fill="none" xmlns="http://www.w3.org/2000/svg">
<path d="M60 0H6C2.685 0 0 2.685 0 6V60C0 63.315 2.685 66 6 66H60C63.315 66 66 63.315 66 60V6C66 2.685 63.315 0 60 0ZM20.862 54H12.012V25.524H20.862V54ZM16.347 21.453C13.494 21.453 11.187 19.14 11.187 16.293C11.187 13.446 13.497 11.136 16.347 11.136C19.191 11.136 21.504 13.449 21.504 16.293C21.504 19.14 19.191 21.453 16.347 21.453ZM54.012 54H45.168V40.152C45.168 36.849 45.108 32.601 40.569 32.601C35.964 32.601 35.256 36.198 35.256 39.912V54H26.412V25.524H34.902V29.415H35.022C36.204 27.177 39.09 24.816 43.395 24.816C52.356 24.816 54.012 30.714 54.012 38.382V54Z" fill="#0C1B9B"/>
</svg>
