<svg width="563" height="509" viewBox="0 0 563 509" fill="none" xmlns="http://www.w3.org/2000/svg">
<path d="M22.344 57.472C25.032 57.472 27.016 57.0027 28.296 56.064C29.6187 55.1253 30.28 53.76 30.28 51.968C30.28 50.8587 30.0453 49.92 29.576 49.152C29.1067 48.384 28.4667 47.7227 27.656 47.168C26.888 46.6133 25.9707 46.144 24.904 45.76C23.88 45.3333 22.8133 44.928 21.704 44.544C19.656 43.8613 17.8 43.1787 16.136 42.496C14.5147 41.8133 13.1067 41.024 11.912 40.128C10.76 39.1893 9.864 38.0587 9.224 36.736C8.584 35.3707 8.264 33.6853 8.264 31.68C8.264 28.9067 8.81867 26.6667 9.928 24.96C11.08 23.2107 12.5093 21.8667 14.216 20.928C15.9227 19.9467 17.7787 19.3067 19.784 19.008C21.832 18.6667 23.7307 18.496 25.48 18.496C27.6987 18.496 29.7893 18.6667 31.752 19.008C33.7573 19.3493 35.5067 19.6907 37 20.032V27.456C34.952 26.8587 32.84 26.368 30.664 25.984C28.488 25.6 26.504 25.408 24.712 25.408C21.64 25.408 19.4 25.9627 17.992 27.072C16.584 28.1387 15.88 29.44 15.88 30.976C15.88 32.128 16.2 33.088 16.84 33.856C17.5227 34.624 18.3333 35.2853 19.272 35.84C20.2533 36.3947 21.2773 36.8427 22.344 37.184C23.4533 37.4827 24.456 37.76 25.352 38.016C26.888 38.4427 28.424 38.976 29.96 39.616C31.496 40.2133 32.8827 41.024 34.12 42.048C35.4 43.072 36.424 44.352 37.192 45.888C37.96 47.3813 38.344 49.2373 38.344 51.456C38.344 53.6747 37.9387 55.616 37.128 57.28C36.36 58.944 35.2507 60.3307 33.8 61.44C32.392 62.5493 30.7067 63.3813 28.744 63.936C26.7813 64.4907 24.6267 64.768 22.28 64.768C20.232 64.768 17.928 64.5547 15.368 64.128C12.8507 63.7013 10.376 63.04 7.944 62.144L7.688 54.272C8.456 54.656 9.416 55.04 10.568 55.424C11.72 55.7653 12.9573 56.1067 14.28 56.448C15.6453 56.7467 17.0107 57.0027 18.376 57.216C19.784 57.3867 21.1067 57.472 22.344 57.472ZM40.9555 64.768C42.1075 60.4587 43.2595 56.3413 44.4115 52.416C45.6062 48.448 46.8435 44.608 48.1235 40.896C49.4035 37.184 50.7688 33.536 52.2195 29.952C53.7128 26.368 55.3128 22.784 57.0195 19.2L65.0195 18.432C66.7262 21.9733 68.3048 25.5147 69.7555 29.056C71.2062 32.5973 72.5715 36.2453 73.8515 40C75.1742 43.712 76.4115 47.552 77.5635 51.52C78.7582 55.488 79.9315 59.648 81.0835 64L72.3795 64.768C71.7822 62.5067 71.1848 60.2453 70.5875 57.984C69.9902 55.68 69.3928 53.376 68.7955 51.072H52.9875C52.3902 53.1627 51.8142 55.2747 51.2595 57.408C50.7048 59.5413 50.1928 61.7387 49.7235 64L40.9555 64.768ZM61.0515 26.432C58.5768 32.4907 56.4222 38.7413 54.5875 45.184H67.1955C66.2568 41.984 65.2755 38.8053 64.2515 35.648C63.2702 32.4907 62.2035 29.4187 61.0515 26.432ZM123.282 19.2C123.154 20.5653 123.047 21.9733 122.962 23.424C122.919 24.832 122.876 26.4107 122.834 28.16C122.834 29.8667 122.812 31.7867 122.77 33.92C122.77 36.0533 122.77 38.4853 122.77 41.216C122.77 43.776 122.77 46.1013 122.77 48.192C122.77 50.24 122.77 52.16 122.77 53.952C122.812 55.744 122.834 57.4507 122.834 59.072C122.876 60.6933 122.919 62.336 122.962 64L110.098 64.768C107.239 59.0507 104.466 52.9707 101.778 46.528C99.1322 40.0427 96.7855 33.4933 94.7375 26.88C94.7375 27.6907 94.7162 28.672 94.6735 29.824C94.6735 30.9333 94.6735 32.128 94.6735 33.408C94.6735 34.688 94.6735 36.0107 94.6735 37.376C94.6735 38.6987 94.6735 39.9787 94.6735 41.216C94.6735 43.776 94.6948 46.1013 94.7375 48.192C94.7802 50.24 94.8228 52.16 94.8655 53.952C94.9082 55.744 94.9508 57.4507 94.9935 59.072C95.0788 60.6933 95.1428 62.336 95.1855 64H86.4815C86.5242 61.952 86.5668 60.16 86.6095 58.624C86.6948 57.0453 86.7588 55.424 86.8015 53.76C86.8442 52.0533 86.8868 50.112 86.9295 47.936C86.9722 45.76 86.9935 43.0293 86.9935 39.744C86.9935 36.4587 86.9722 33.1947 86.9295 29.952C86.8868 26.6667 86.8015 23.296 86.6735 19.84L100.818 18.432C102.14 24.0213 103.932 30.144 106.194 36.8C108.498 43.456 111.378 50.624 114.833 58.304C114.919 56.256 114.983 53.696 115.026 50.624C115.068 47.552 115.09 43.9253 115.09 39.744C115.09 36.4587 115.004 33.1947 114.833 29.952C114.706 26.6667 114.578 23.296 114.45 19.84L123.282 19.2ZM128.518 64.768C129.67 60.4587 130.822 56.3413 131.974 52.416C133.169 48.448 134.406 44.608 135.686 40.896C136.966 37.184 138.331 33.536 139.782 29.952C141.275 26.368 142.875 22.784 144.582 19.2L152.582 18.432C154.289 21.9733 155.867 25.5147 157.318 29.056C158.769 32.5973 160.134 36.2453 161.414 40C162.737 43.712 163.974 47.552 165.126 51.52C166.321 55.488 167.494 59.648 168.646 64L159.942 64.768C159.345 62.5067 158.747 60.2453 158.15 57.984C157.553 55.68 156.955 53.376 156.358 51.072H140.55C139.953 53.1627 139.377 55.2747 138.822 57.408C138.267 59.5413 137.755 61.7387 137.286 64L128.518 64.768ZM148.614 26.432C146.139 32.4907 143.985 38.7413 142.15 45.184H154.758C153.819 41.984 152.838 38.8053 151.814 35.648C150.833 32.4907 149.766 29.4187 148.614 26.432Z" fill="#547EE9"/>
<path d="M8.25 246.75V205.125C8.25 204.979 8.3125 204.854 8.4375 204.75C8.58333 204.646 8.80208 204.573 9.09375 204.531C9.38542 204.49 9.63542 204.458 9.84375 204.438C10.0729 204.417 10.3854 204.406 10.7812 204.406C11.1979 204.385 11.4792 204.375 11.625 204.375H37C39.0833 204.375 41.0521 204.708 42.9062 205.375C44.7604 206.021 46.4062 206.969 47.8438 208.219C49.2812 209.469 50.4167 211.083 51.25 213.062C52.0833 215.042 52.5 217.271 52.5 219.75C52.5 221.583 52.2812 223.26 51.8438 224.781C51.4271 226.302 50.8646 227.604 50.1562 228.688C49.4688 229.75 48.6146 230.708 47.5938 231.562C46.5938 232.417 45.5625 233.104 44.5 233.625C43.4583 234.146 42.3021 234.594 41.0312 234.969C39.7604 235.323 38.5833 235.583 37.5 235.75C36.4375 235.917 35.3125 236.042 34.125 236.125H28.125C27.9583 239.396 27.875 243.062 27.875 247.125V250.625C27.8125 251.375 27.4583 251.75 26.8125 251.75H9.0625C8.52083 250.312 8.25 248.646 8.25 246.75ZM25.875 224.875L26.875 226.25C27.7292 226.25 28.5417 226.188 29.3125 226.062C30.1042 225.938 30.875 225.719 31.625 225.406C32.375 225.094 33.0208 224.698 33.5625 224.219C34.1042 223.719 34.5417 223.094 34.875 222.344C35.2083 221.573 35.375 220.708 35.375 219.75C35.375 219.021 35.2708 218.375 35.0625 217.812C34.875 217.229 34.6354 216.76 34.3438 216.406C34.0729 216.031 33.6875 215.708 33.1875 215.438C32.7083 215.167 32.25 214.969 31.8125 214.844C31.3958 214.698 30.8542 214.594 30.1875 214.531C29.5417 214.448 29 214.406 28.5625 214.406C28.1458 214.385 27.6042 214.375 26.9375 214.375C26.2292 214.708 25.875 218.208 25.875 224.875ZM53.4375 227.5V224.062C53.6458 221.146 54.2812 218.49 55.3438 216.094C56.4062 213.677 57.75 211.646 59.375 210C61.0208 208.354 62.9167 206.969 65.0625 205.844C67.2083 204.698 69.4479 203.865 71.7812 203.344C74.1354 202.823 76.5625 202.562 79.0625 202.562C80.4375 202.562 81.8646 202.677 83.3438 202.906C84.8438 203.135 86.4271 203.5 88.0938 204C89.7604 204.5 91.3542 205.24 92.875 206.219C94.4167 207.177 95.6875 208.312 96.6875 209.625C98.75 212.146 100.24 214.792 101.156 217.562C102.094 220.312 102.562 223.375 102.562 226.75C102.625 233.792 101.083 239.458 97.9375 243.75L96.5625 245.625C95.3542 247.292 93.625 248.688 91.375 249.812C89.125 250.917 86.875 251.677 84.625 252.094C82.375 252.531 80.1042 252.75 77.8125 252.75C75.125 252.75 72.6458 252.479 70.375 251.938C68.1042 251.396 66.1458 250.667 64.5 249.75C62.8542 248.833 61.3854 247.719 60.0938 246.406C58.8021 245.094 57.7396 243.708 56.9062 242.25C56.0938 240.792 55.4167 239.208 54.875 237.5C54.3542 235.792 53.9792 234.125 53.75 232.5C53.5417 230.875 53.4375 229.208 53.4375 227.5ZM78.3125 215.125C77.4583 215.125 76.6875 215.323 76 215.719C75.3333 216.115 74.7812 216.594 74.3438 217.156C73.9271 217.719 73.5625 218.479 73.25 219.438C72.9375 220.375 72.7083 221.229 72.5625 222C72.4167 222.75 72.3021 223.708 72.2188 224.875C72.1354 226.021 72.0833 226.917 72.0625 227.562C72.0625 228.188 72.0625 229 72.0625 230C72.0625 230.958 72.0938 231.875 72.1562 232.75C72.2396 233.604 72.3958 234.521 72.625 235.5C72.875 236.458 73.1875 237.302 73.5625 238.031C73.9583 238.74 74.4896 239.344 75.1562 239.844C75.8438 240.323 76.625 240.583 77.5 240.625C78.4167 240.625 79.2292 240.479 79.9375 240.188C80.6458 239.875 81.2396 239.49 81.7188 239.031C82.1979 238.552 82.6042 237.917 82.9375 237.125C83.2708 236.333 83.5208 235.573 83.6875 234.844C83.875 234.115 84.0104 233.208 84.0938 232.125C84.1979 231.042 84.2604 230.115 84.2812 229.344C84.3021 228.552 84.3125 227.562 84.3125 226.375C84.3125 225.5 84.2812 224.688 84.2188 223.938C84.1771 223.188 84.0938 222.354 83.9688 221.438C83.8438 220.521 83.6354 219.719 83.3438 219.031C83.0521 218.323 82.6979 217.667 82.2812 217.062C81.8646 216.438 81.3125 215.958 80.625 215.625C79.9583 215.292 79.1875 215.125 78.3125 215.125ZM104.5 250.5V249.5C104.5 247.708 104.531 245.594 104.594 243.156C104.656 240.719 104.729 239.5 104.812 239.5C104.833 239.521 105.135 239.156 105.719 238.406C106.302 237.656 107.385 236.292 108.969 234.312C110.573 232.333 112.229 230.292 113.938 228.188L123.062 217.062C121.167 217.062 118.375 217.094 114.688 217.156C111 217.219 108.208 217.25 106.312 217.25C106 217.167 105.792 217.01 105.688 216.781C105.604 216.531 105.562 216.188 105.562 215.75V212C105.562 211.792 105.521 211.042 105.438 209.75C105.354 208.458 105.312 207.458 105.312 206.75C105.312 205.083 105.521 204.25 105.938 204.25C113.021 204.25 123.354 204.167 136.938 204H143.562C144.771 204 145.51 204.104 145.781 204.312C146.052 204.521 146.188 205.208 146.188 206.375C146.188 206.667 146.167 207.042 146.125 207.5C146.083 207.938 146.062 208.188 146.062 208.25V208.438C146.062 210.25 145.948 211.875 145.719 213.312C145.51 214.729 145.26 215.906 144.969 216.844C144.698 217.76 144.229 218.719 143.562 219.719C142.917 220.719 142.344 221.51 141.844 222.094C141.344 222.656 140.562 223.521 139.5 224.688C138.438 225.833 137.562 226.812 136.875 227.625L127.812 238.375H145.812C146.042 238.375 146.229 238.542 146.375 238.875C146.521 239.188 146.625 239.688 146.688 240.375C146.75 241.062 146.781 241.656 146.781 242.156C146.802 242.635 146.812 243.333 146.812 244.25V247.125C146.812 247.312 146.833 247.688 146.875 248.25C146.917 248.792 146.938 249.208 146.938 249.5C146.938 250.458 146.771 251.073 146.438 251.344C146.104 251.615 145.479 251.75 144.562 251.75H143.812C139.729 251.75 133.635 251.812 125.531 251.938C117.448 252.062 111.375 252.125 107.312 252.125C106.604 252.125 106.094 252.031 105.781 251.844C105.469 251.656 105.042 251.208 104.5 250.5ZM154.781 197.875C154.802 196.688 154.781 195.042 154.719 192.938C154.677 190.833 154.656 189.354 154.656 188.5C154.656 187.417 154.948 186.875 155.531 186.875H165.969C166.427 187.021 166.656 187.542 166.656 188.438C166.656 188.521 166.646 188.698 166.625 188.969C166.604 189.24 166.594 189.458 166.594 189.625V192.312C166.594 192.75 166.625 193.406 166.688 194.281C166.75 195.156 166.781 195.812 166.781 196.25V197.25C166.74 197.458 166.719 197.812 166.719 198.312C166.573 198.938 165.531 199.25 163.594 199.25H154.781V197.875ZM150.188 251.812C150.271 245.75 150.417 241.312 150.625 238.5C150.625 229.75 150.75 220.875 151 211.875C150.917 210.125 150.875 208.833 150.875 208V207.062C150.792 206.146 150.75 205.396 150.75 204.812C150.75 204.417 150.938 204.062 151.312 203.75C154.729 204 159.938 204.125 166.938 204.125C168.604 204.125 169.75 204.083 170.375 204V251.812H150.188ZM196.688 252.875C194.229 252.771 192.021 252.552 190.062 252.219C188.104 251.906 186.208 251.396 184.375 250.688C182.562 249.958 181.031 249.052 179.781 247.969C178.552 246.865 177.521 245.458 176.688 243.75C175.875 242.042 175.375 240.062 175.188 237.812C175.188 237.417 175.396 237.188 175.812 237.125C175.938 237.167 176.146 237.188 176.438 237.188C178.167 237.188 180.792 237.146 184.312 237.062C187.833 236.979 190.458 236.938 192.188 236.938C192.625 236.938 192.969 237.083 193.219 237.375C193.469 237.646 193.667 237.99 193.812 238.406C193.979 238.802 194.167 239.208 194.375 239.625C194.604 240.021 194.979 240.365 195.5 240.656C196.042 240.927 196.729 241.062 197.562 241.062C198.583 241.062 199.479 240.781 200.25 240.219C201.042 239.635 201.438 238.854 201.438 237.875C201.438 237.229 201.104 236.635 200.438 236.094C199.771 235.552 198.885 235.115 197.781 234.781C196.698 234.427 195.656 234.135 194.656 233.906C193.677 233.656 192.667 233.448 191.625 233.281C190.583 233.094 189.979 232.979 189.812 232.938C184.75 231.562 181.104 229.854 178.875 227.812C176.667 225.771 175.562 222.979 175.562 219.438C175.562 216.938 176.021 214.698 176.938 212.719C177.854 210.719 179.052 209.094 180.531 207.844C182.01 206.573 183.76 205.521 185.781 204.688C187.802 203.833 189.844 203.24 191.906 202.906C193.969 202.552 196.104 202.375 198.312 202.375C204.167 202.375 208.833 203.458 212.312 205.625C213.583 206.896 214.51 207.865 215.094 208.531C215.698 209.177 216.271 209.938 216.812 210.812C217.375 211.688 217.76 212.552 217.969 213.406C218.198 214.24 218.354 215.271 218.438 216.5L217.312 217.625C213.042 217.792 208.25 217.875 202.938 217.875C202.271 217.875 201.729 217.802 201.312 217.656C200.917 217.51 200.646 217.323 200.5 217.094C200.375 216.865 200.24 216.625 200.094 216.375C199.969 216.125 199.844 215.885 199.719 215.656C199.615 215.427 199.375 215.24 199 215.094C198.646 214.948 198.167 214.875 197.562 214.875C197.396 214.875 197.125 214.906 196.75 214.969C196.396 215.031 195.969 215.135 195.469 215.281C194.99 215.406 194.573 215.615 194.219 215.906C193.865 216.177 193.688 216.5 193.688 216.875C193.688 217.333 193.917 217.75 194.375 218.125C194.854 218.5 195.354 218.771 195.875 218.938C196.396 219.104 197.042 219.292 197.812 219.5C198.583 219.688 199.062 219.812 199.25 219.875C203.792 221.021 206.5 221.729 207.375 222C211.938 223.438 215.167 225.323 217.062 227.656C218.812 229.823 219.688 232.542 219.688 235.812C219.688 237.792 219.427 239.594 218.906 241.219C218.406 242.844 217.74 244.219 216.906 245.344C216.073 246.469 215.031 247.469 213.781 248.344C212.531 249.219 211.26 249.917 209.969 250.438C208.698 250.958 207.25 251.396 205.625 251.75C204 252.104 202.5 252.354 201.125 252.5C199.771 252.667 198.292 252.792 196.688 252.875ZM269.344 205.312C268.031 207.938 265.573 212.656 261.969 219.469C258.385 226.26 255.677 231.562 253.844 235.375V251C253.74 251.354 253.604 251.604 253.438 251.75C253.271 251.917 252.99 252 252.594 252C250.635 252 247.719 252.021 243.844 252.062C239.99 252.104 237.031 252.125 234.969 252.125C234.219 251.375 233.844 250.5 233.844 249.5C233.927 249.042 233.979 248.521 234 247.938C234.021 247.354 234.021 246.615 234 245.719C233.979 244.823 233.969 244.25 233.969 244V241.75C233.969 236.771 232.927 232.292 230.844 228.312C230.531 227.667 230.198 226.99 229.844 226.281C229.51 225.573 229.188 224.885 228.875 224.219C228.562 223.552 228.24 222.875 227.906 222.188C227.573 221.5 227.24 220.812 226.906 220.125C226.594 219.438 226.281 218.76 225.969 218.094C225.656 217.427 225.323 216.74 224.969 216.031C224.635 215.323 224.302 214.646 223.969 214L218.625 205.031C218.625 204.76 218.844 204.51 219.281 204.281C219.719 204.052 220.156 203.938 220.594 203.938H228.469C229.552 203.938 231.177 203.948 233.344 203.969C235.531 203.99 237.156 204 238.219 204C238.51 204.042 238.833 204.344 239.188 204.906C239.542 205.469 239.906 206.229 240.281 207.188C240.677 208.146 241.062 209.167 241.438 210.25C241.812 211.312 242.188 212.49 242.562 213.781C242.938 215.073 243.26 216.208 243.531 217.188C243.823 218.167 244.104 219.167 244.375 220.188C244.667 221.208 244.854 221.875 244.938 222.188L250.656 203.875H268.281C268.573 203.917 268.792 204.042 268.938 204.25C269.083 204.438 269.219 204.792 269.344 205.312ZM266.312 227.5V224.062C266.521 221.146 267.156 218.49 268.219 216.094C269.281 213.677 270.625 211.646 272.25 210C273.896 208.354 275.792 206.969 277.938 205.844C280.083 204.698 282.323 203.865 284.656 203.344C287.01 202.823 289.438 202.562 291.938 202.562C293.312 202.562 294.74 202.677 296.219 202.906C297.719 203.135 299.302 203.5 300.969 204C302.635 204.5 304.229 205.24 305.75 206.219C307.292 207.177 308.562 208.312 309.562 209.625C311.625 212.146 313.115 214.792 314.031 217.562C314.969 220.312 315.438 223.375 315.438 226.75C315.5 233.792 313.958 239.458 310.812 243.75L309.438 245.625C308.229 247.292 306.5 248.688 304.25 249.812C302 250.917 299.75 251.677 297.5 252.094C295.25 252.531 292.979 252.75 290.688 252.75C288 252.75 285.521 252.479 283.25 251.938C280.979 251.396 279.021 250.667 277.375 249.75C275.729 248.833 274.26 247.719 272.969 246.406C271.677 245.094 270.615 243.708 269.781 242.25C268.969 240.792 268.292 239.208 267.75 237.5C267.229 235.792 266.854 234.125 266.625 232.5C266.417 230.875 266.312 229.208 266.312 227.5ZM291.188 215.125C290.333 215.125 289.562 215.323 288.875 215.719C288.208 216.115 287.656 216.594 287.219 217.156C286.802 217.719 286.438 218.479 286.125 219.438C285.812 220.375 285.583 221.229 285.438 222C285.292 222.75 285.177 223.708 285.094 224.875C285.01 226.021 284.958 226.917 284.938 227.562C284.938 228.188 284.938 229 284.938 230C284.938 230.958 284.969 231.875 285.031 232.75C285.115 233.604 285.271 234.521 285.5 235.5C285.75 236.458 286.062 237.302 286.438 238.031C286.833 238.74 287.365 239.344 288.031 239.844C288.719 240.323 289.5 240.583 290.375 240.625C291.292 240.625 292.104 240.479 292.812 240.188C293.521 239.875 294.115 239.49 294.594 239.031C295.073 238.552 295.479 237.917 295.812 237.125C296.146 236.333 296.396 235.573 296.562 234.844C296.75 234.115 296.885 233.208 296.969 232.125C297.073 231.042 297.135 230.115 297.156 229.344C297.177 228.552 297.188 227.562 297.188 226.375C297.188 225.5 297.156 224.688 297.094 223.938C297.052 223.188 296.969 222.354 296.844 221.438C296.719 220.521 296.51 219.719 296.219 219.031C295.927 218.323 295.573 217.667 295.156 217.062C294.74 216.438 294.188 215.958 293.5 215.625C292.833 215.292 292.062 215.125 291.188 215.125ZM319.438 251.125V237C319.396 231.833 319.562 221.979 319.938 207.438V204.875C319.938 204.417 320.021 204.146 320.188 204.062H341.688C341.896 204.062 342.312 204.854 342.938 206.438C343.583 208.021 344.354 210.062 345.25 212.562C346.167 215.042 346.812 216.75 347.188 217.688L351.562 229.125V217C351.562 215.958 351.583 214.052 351.625 211.281C351.688 208.49 351.708 206.312 351.688 204.75C351.688 204.167 353.354 203.875 356.688 203.875C357.729 203.875 359.156 203.896 360.969 203.938C362.781 203.979 363.896 204 364.312 204H366.688C367.021 204 367.188 204.062 367.188 204.188C367.312 209.979 367.375 218.271 367.375 229.062V250.75C367.229 251.292 366.562 251.562 365.375 251.562H364.562C363.479 251.562 361.885 251.583 359.781 251.625C357.677 251.667 356.083 251.688 355 251.688H345.812C345.521 251.583 344.917 250.271 344 247.75C343.021 245.021 341.562 241.073 339.625 235.906C337.688 230.74 336.604 227.854 336.375 227.25C336.375 228.479 336.365 230.312 336.344 232.75C336.323 235.188 336.312 237.021 336.312 238.25C336.312 239.167 336.333 240.542 336.375 242.375C336.417 244.208 336.438 245.583 336.438 246.5V250.438C336.438 251.396 336.021 251.875 335.188 251.875H320.812L319.438 251.125ZM367.188 204.125V204.25V204.125ZM374.062 209.25C374.062 205.854 374.417 203.958 375.125 203.562C375.333 203.604 375.625 203.625 376 203.625H377C377.646 203.625 378.708 203.604 380.188 203.562C381.667 203.521 382.792 203.5 383.562 203.5C386.521 203.5 388.906 203.625 390.719 203.875C392.552 204.104 393.583 204.542 393.812 205.188L393.438 237.438H394.125C395.792 237.354 396.958 237.323 397.625 237.344C398.292 237.344 399.51 237.385 401.281 237.469C403.073 237.531 404.792 237.562 406.438 237.562C407.792 237.562 408.792 237.646 409.438 237.812C410.104 237.958 410.438 238.271 410.438 238.75V250.75C410.167 251.5 405.521 251.875 396.5 251.875H374.875C374.375 251.146 374.125 249.979 374.125 248.375V239.5C374.125 236.896 374.146 233.042 374.188 227.938C374.229 222.833 374.25 218.979 374.25 216.375C374.25 215.896 374.219 214.833 374.156 213.188C374.094 211.542 374.062 210.229 374.062 209.25ZM408.875 251C410.167 246.229 411.594 241.385 413.156 236.469C414.719 231.552 416.656 225.677 418.969 218.844C421.302 211.99 422.896 207.25 423.75 204.625C424 204.208 424.167 203.958 424.25 203.875H429.5C430.729 203.875 432.542 203.854 434.938 203.812C437.333 203.771 439.146 203.75 440.375 203.75H445.625C445.938 203.75 446.198 203.76 446.406 203.781C446.615 203.781 446.865 203.802 447.156 203.844C447.448 203.885 447.677 203.948 447.844 204.031C448.031 204.115 448.188 204.24 448.312 204.406C448.438 204.573 448.5 204.771 448.5 205L462.906 250.656C462.906 251.073 462.75 251.354 462.438 251.5C462.146 251.667 461.583 251.75 460.75 251.75H457.875C457.042 251.75 455.802 251.76 454.156 251.781C452.51 251.802 451.271 251.812 450.438 251.812C450.188 251.812 449.677 251.823 448.906 251.844C448.156 251.885 447.521 251.896 447 251.875C446.479 251.875 445.896 251.844 445.25 251.781C444.625 251.74 444.115 251.625 443.719 251.438C443.344 251.271 443.104 251.042 443 250.75V248.688C442.792 247.646 442.427 246.688 441.906 245.812C441.385 244.938 440.833 244.5 440.25 244.5H429.5L427.875 251.125C427.646 251.625 426.479 251.875 424.375 251.875H421.875C420.979 251.875 419.646 251.906 417.875 251.969C416.104 252.031 414.771 252.062 413.875 252.062H413C412.667 252.062 412.135 252.073 411.406 252.094C410.698 252.115 410.146 252.125 409.75 252.125C409.583 251.958 409.292 251.583 408.875 251ZM430.562 232.031L431.438 233.5H433.5C435.167 233.5 436.688 233.406 438.062 233.219C439.458 233.01 440.156 232.688 440.156 232.25L436.125 214.25C435.75 214.25 435.24 214.958 434.594 216.375C433.969 217.792 433.458 219.396 433.062 221.188L430.562 232.031ZM510.062 251.125C509.604 251.583 508.635 251.854 507.156 251.938C505.698 252.021 503.896 252 501.75 251.875C499.604 251.75 498.458 251.688 498.312 251.688C496.896 251.688 495.875 251.667 495.25 251.625H492.125C491.667 251.479 491.281 250.802 490.969 249.594C490.656 248.365 490.344 246.615 490.031 244.344C489.74 242.052 489.583 240.833 489.562 240.688C489.479 238.625 489.146 237.271 488.562 236.625C487.979 235.958 486.917 235.625 485.375 235.625H484V250.875C483.958 251.125 483.74 251.333 483.344 251.5C482.948 251.667 482.375 251.771 481.625 251.812C480.896 251.875 480.24 251.906 479.656 251.906C479.094 251.927 478.344 251.927 477.406 251.906C476.469 251.885 475.896 251.875 475.688 251.875H471.188C468.646 251.875 466.729 251.896 465.438 251.938C465.146 251.812 464.854 251.667 464.562 251.5V204.875C464.562 204.292 465.396 204 467.062 204H494.312C499.042 204.125 502.635 205.25 505.094 207.375C507.573 209.5 508.812 212.5 508.812 216.375C508.812 221.417 506.271 225.104 501.188 227.438C502.125 227.729 502.969 228.135 503.719 228.656C504.469 229.177 505.094 229.74 505.594 230.344C506.094 230.927 506.531 231.635 506.906 232.469C507.281 233.302 507.573 234.083 507.781 234.812C507.99 235.542 508.167 236.406 508.312 237.406C508.479 238.406 508.594 239.271 508.656 240C508.719 240.729 508.792 241.604 508.875 242.625C508.979 243.625 509.062 244.417 509.125 245V247.75C509.188 248.083 509.375 248.552 509.688 249.156C510.021 249.76 510.229 250.208 510.312 250.5C510.312 250.917 510.229 251.125 510.062 251.125ZM483.812 217.25C483.812 218.5 483.823 219.427 483.844 220.031C483.865 220.635 483.979 221.427 484.188 222.406C484.396 223.385 484.708 224.083 485.125 224.5C486 224.5 486.823 224.406 487.594 224.219C488.385 224.031 489.146 223.729 489.875 223.312C490.604 222.896 491.177 222.281 491.594 221.469C492.031 220.635 492.25 219.646 492.25 218.5C492.25 217.854 492.135 217.292 491.906 216.812C491.677 216.312 491.344 215.917 490.906 215.625C490.469 215.333 490.031 215.104 489.594 214.938C489.177 214.75 488.656 214.625 488.031 214.562C487.427 214.479 486.948 214.427 486.594 214.406C486.24 214.385 485.812 214.375 485.312 214.375H484.562C484.25 214.521 484.042 214.812 483.938 215.25C483.854 215.688 483.812 216.354 483.812 217.25ZM508.812 251C510.104 246.229 511.531 241.385 513.094 236.469C514.656 231.552 516.594 225.677 518.906 218.844C521.24 211.99 522.833 207.25 523.688 204.625C523.938 204.208 524.104 203.958 524.188 203.875H529.438C530.667 203.875 532.479 203.854 534.875 203.812C537.271 203.771 539.083 203.75 540.312 203.75H545.562C545.875 203.75 546.135 203.76 546.344 203.781C546.552 203.781 546.802 203.802 547.094 203.844C547.385 203.885 547.615 203.948 547.781 204.031C547.969 204.115 548.125 204.24 548.25 204.406C548.375 204.573 548.438 204.771 548.438 205L562.844 250.656C562.844 251.073 562.688 251.354 562.375 251.5C562.083 251.667 561.521 251.75 560.688 251.75H557.812C556.979 251.75 555.74 251.76 554.094 251.781C552.448 251.802 551.208 251.812 550.375 251.812C550.125 251.812 549.615 251.823 548.844 251.844C548.094 251.885 547.458 251.896 546.938 251.875C546.417 251.875 545.833 251.844 545.188 251.781C544.562 251.74 544.052 251.625 543.656 251.438C543.281 251.271 543.042 251.042 542.938 250.75V248.688C542.729 247.646 542.365 246.688 541.844 245.812C541.323 244.938 540.771 244.5 540.188 244.5H529.438L527.812 251.125C527.583 251.625 526.417 251.875 524.312 251.875H521.812C520.917 251.875 519.583 251.906 517.812 251.969C516.042 252.031 514.708 252.062 513.812 252.062H512.938C512.604 252.062 512.073 252.073 511.344 252.094C510.635 252.115 510.083 252.125 509.688 252.125C509.521 251.958 509.229 251.583 508.812 251ZM530.5 232.031L531.375 233.5H533.438C535.104 233.5 536.625 233.406 538 233.219C539.396 233.01 540.094 232.688 540.094 232.25L536.062 214.25C535.688 214.25 535.177 214.958 534.531 216.375C533.906 217.792 533.396 219.396 533 221.188L530.5 232.031Z" fill="#394AE4"/>
<path d="M16.0449 299.084V310.967H37.5V299.084C37.5 298.001 37.0768 297.307 36.2305 297.002C35.3841 296.697 34.9609 296.325 34.9609 295.885C34.9609 295.529 35.1387 295.352 35.4941 295.352H44.1016C44.457 295.352 44.6348 295.529 44.6348 295.885C44.6348 296.325 44.2031 296.697 43.3398 297.002C42.4935 297.307 42.0703 298.001 42.0703 299.084V327.293C42.0703 328.393 42.4935 329.096 43.3398 329.4C44.2031 329.688 44.6348 330.044 44.6348 330.467C44.6348 330.822 44.457 331 44.1016 331H35.4941C35.1387 331 34.9609 330.822 34.9609 330.467C34.9609 330.044 35.3841 329.688 36.2305 329.4C37.0768 329.096 37.5 328.393 37.5 327.293V313.303H16.0449V327.293C16.0449 328.393 16.4681 329.096 17.3145 329.4C18.1608 329.688 18.584 330.044 18.584 330.467C18.584 330.822 18.4147 331 18.0762 331H9.46875C9.11328 331 8.93555 330.822 8.93555 330.467C8.93555 330.044 9.35872 329.688 10.2051 329.4C11.0514 329.096 11.4746 328.393 11.4746 327.293V299.084C11.4746 298.001 11.0514 297.307 10.2051 297.002C9.35872 296.697 8.93555 296.325 8.93555 295.885C8.93555 295.529 9.11328 295.352 9.46875 295.352H18.0762C18.4147 295.352 18.584 295.529 18.584 295.885C18.584 296.325 18.1608 296.697 17.3145 297.002C16.4681 297.307 16.0449 298.001 16.0449 299.084ZM67.8672 294.768C68.7135 296.765 69.7546 299.211 70.9902 302.105C72.2428 305 73.5293 307.979 74.8496 311.043C76.1868 314.107 77.4733 317.086 78.709 319.98C79.9616 322.875 81.0195 325.312 81.8828 327.293C82.1367 327.919 82.6361 328.486 83.3809 328.994C83.7702 329.248 84.151 329.46 84.5234 329.629C84.9128 329.798 85.2259 329.959 85.4629 330.111C85.6322 330.23 85.7422 330.348 85.793 330.467C85.8268 330.535 85.8438 330.602 85.8438 330.67C85.8438 330.721 85.8268 330.78 85.793 330.848C85.7422 330.949 85.6406 331 85.4883 331H76.9062C76.7539 331 76.6016 330.949 76.4492 330.848C76.2799 330.729 76.1784 330.602 76.1445 330.467C76.1107 330.416 76.0938 330.365 76.0938 330.314C76.0938 330.162 76.1953 330.001 76.3984 329.832C76.5508 329.68 76.737 329.519 76.957 329.35C77.1771 329.18 77.3379 328.952 77.4395 328.664C77.4902 328.529 77.5156 328.376 77.5156 328.207C77.5156 327.919 77.4479 327.606 77.3125 327.268L73.5547 318.584H58.752C58.1426 320.04 57.5332 321.495 56.9238 322.951C56.3314 324.39 55.7305 325.829 55.1211 327.268C54.9688 327.606 54.8841 327.911 54.8672 328.182C54.8503 328.3 54.8418 328.419 54.8418 328.537C54.8418 328.706 54.8672 328.867 54.918 329.02C54.9688 329.24 55.0534 329.426 55.1719 329.578C55.2904 329.714 55.375 329.857 55.4258 330.01C55.4427 330.145 55.4512 330.238 55.4512 330.289C55.4512 330.34 55.4342 330.399 55.4004 330.467C55.2819 330.822 55.0957 331 54.8418 331H48.291C48.1217 331 48.0033 330.949 47.9355 330.848C47.9355 330.831 47.9186 330.788 47.8848 330.721C47.8848 330.687 47.9017 330.602 47.9355 330.467C48.0371 330.247 48.3249 330.027 48.7988 329.807C49.0527 329.688 49.3236 329.561 49.6113 329.426C49.916 329.273 50.2207 329.096 50.5254 328.893C51.1517 328.452 51.6087 327.919 51.8965 327.293L66.293 294.768H67.8672ZM72.666 316.527L66.0391 301.064C64.9557 303.654 63.8724 306.236 62.7891 308.809C61.7227 311.382 60.6562 313.954 59.5898 316.527H72.666ZM88.2812 329.451L112.961 297.688L97.5234 297.713C96.5078 297.713 95.6868 298.035 95.0605 298.678C94.4342 299.321 93.6979 300.227 92.8516 301.395C92.3776 302.072 92.056 302.41 91.8867 302.41C91.5312 302.41 91.3535 302.232 91.3535 301.877V297.18C91.3535 296.266 91.5143 295.715 91.8359 295.529C92.1576 295.326 92.9616 295.225 94.248 295.225H117.709C119.097 295.225 119.943 295.368 120.248 295.656C120.367 295.775 120.426 295.927 120.426 296.113C120.426 296.401 120.299 296.757 120.045 297.18L95.1113 328.512L114.941 328.486C115.957 328.486 116.778 328.173 117.404 327.547C118.031 326.904 118.775 325.99 119.639 324.805C120.113 324.145 120.426 323.814 120.578 323.814C120.934 323.814 121.111 323.992 121.111 324.348V329.045C121.111 330.027 120.976 330.602 120.705 330.771C120.451 330.924 119.63 331 118.242 331H91.0488C89.627 331 88.6706 330.924 88.1797 330.771C87.9427 330.704 87.8242 330.568 87.8242 330.365C87.8242 330.145 87.9766 329.84 88.2812 329.451ZM132.791 299.084V327.268C132.791 328.385 133.214 329.096 134.061 329.4C134.907 329.688 135.33 330.044 135.33 330.467C135.33 330.822 135.152 331 134.797 331H126.189C125.851 331 125.682 330.822 125.682 330.467C125.682 330.044 126.105 329.688 126.951 329.4C127.798 329.096 128.221 328.393 128.221 327.293V299.084C128.221 297.984 127.798 297.29 126.951 297.002C126.105 296.697 125.682 296.325 125.682 295.885C125.682 295.529 125.859 295.352 126.215 295.352H134.797C135.152 295.352 135.33 295.529 135.33 295.885C135.33 296.325 134.907 296.697 134.061 297.002C133.214 297.29 132.791 297.984 132.791 299.084ZM171.334 329.172C171.808 329.561 172.426 329.79 173.188 329.857C173.661 329.908 173.898 330.086 173.898 330.391V330.467C173.848 330.822 173.67 331 173.365 331H166.586C166.434 331 165.858 330.34 164.859 329.02C163.861 327.699 162.701 326.125 161.381 324.297C160.061 322.469 158.706 320.598 157.318 318.686C155.93 316.773 154.771 315.232 153.84 314.064H149.777V327.293C149.777 328.393 150.201 329.096 151.047 329.4C151.893 329.688 152.316 330.044 152.316 330.467C152.316 330.822 152.147 331 151.809 331H143.201C142.846 331 142.668 330.822 142.668 330.467C142.668 330.044 143.091 329.688 143.938 329.4C144.784 329.096 145.207 328.393 145.207 327.293V299.084C145.207 298.001 144.784 297.307 143.938 297.002C143.091 296.697 142.668 296.325 142.668 295.885C142.668 295.529 142.846 295.352 143.201 295.352H158.182C159.925 295.352 161.745 295.665 163.641 296.291C165.536 296.9 167.001 298.094 168.033 299.871C168.846 301.31 169.252 303.036 169.252 305.051C169.218 306.964 168.668 308.682 167.602 310.205C166.755 311.407 165.579 312.329 164.072 312.973C162.566 313.599 161.135 313.954 159.781 314.039L171.334 329.172ZM149.777 297.459V312.287H155.668C156.836 312.287 158.021 312.118 159.223 311.779C160.424 311.441 161.457 310.84 162.32 309.977C163.674 308.673 164.352 306.947 164.352 304.797C164.352 302.732 163.649 301.005 162.244 299.617C160.738 298.178 158.715 297.459 156.176 297.459H149.777ZM185.07 328.613H195.912C197.486 328.613 198.815 328.012 199.898 326.811C200.999 325.592 201.828 324.644 202.387 323.967C202.691 323.594 202.928 323.408 203.098 323.408C203.453 323.408 203.631 323.586 203.631 323.941C203.631 324.161 203.614 324.339 203.58 324.475L201.727 331H178.469C178.113 331 177.936 330.822 177.936 330.467C177.936 330.044 178.359 329.688 179.205 329.4C180.051 329.096 180.475 328.393 180.475 327.293V299.084C180.475 298.001 180.051 297.307 179.205 297.002C178.359 296.697 177.936 296.325 177.936 295.885C177.936 295.529 178.113 295.352 178.469 295.352H187.076C187.415 295.352 187.584 295.529 187.584 295.885C187.584 296.325 187.161 296.697 186.314 297.002C185.468 297.307 185.045 298.001 185.045 299.084L185.07 328.613ZM227.066 294.768C227.913 296.765 228.954 299.211 230.189 302.105C231.442 305 232.729 307.979 234.049 311.043C235.386 314.107 236.673 317.086 237.908 319.98C239.161 322.875 240.219 325.312 241.082 327.293C241.336 327.919 241.835 328.486 242.58 328.994C242.969 329.248 243.35 329.46 243.723 329.629C244.112 329.798 244.425 329.959 244.662 330.111C244.831 330.23 244.941 330.348 244.992 330.467C245.026 330.535 245.043 330.602 245.043 330.67C245.043 330.721 245.026 330.78 244.992 330.848C244.941 330.949 244.84 331 244.688 331H236.105C235.953 331 235.801 330.949 235.648 330.848C235.479 330.729 235.378 330.602 235.344 330.467C235.31 330.416 235.293 330.365 235.293 330.314C235.293 330.162 235.395 330.001 235.598 329.832C235.75 329.68 235.936 329.519 236.156 329.35C236.376 329.18 236.537 328.952 236.639 328.664C236.689 328.529 236.715 328.376 236.715 328.207C236.715 327.919 236.647 327.606 236.512 327.268L232.754 318.584H217.951C217.342 320.04 216.732 321.495 216.123 322.951C215.531 324.39 214.93 325.829 214.32 327.268C214.168 327.606 214.083 327.911 214.066 328.182C214.049 328.3 214.041 328.419 214.041 328.537C214.041 328.706 214.066 328.867 214.117 329.02C214.168 329.24 214.253 329.426 214.371 329.578C214.49 329.714 214.574 329.857 214.625 330.01C214.642 330.145 214.65 330.238 214.65 330.289C214.65 330.34 214.633 330.399 214.6 330.467C214.481 330.822 214.295 331 214.041 331H207.49C207.321 331 207.202 330.949 207.135 330.848C207.135 330.831 207.118 330.788 207.084 330.721C207.084 330.687 207.101 330.602 207.135 330.467C207.236 330.247 207.524 330.027 207.998 329.807C208.252 329.688 208.523 329.561 208.811 329.426C209.115 329.273 209.42 329.096 209.725 328.893C210.351 328.452 210.808 327.919 211.096 327.293L225.492 294.768H227.066ZM231.865 316.527L225.238 301.064C224.155 303.654 223.072 306.236 221.988 308.809C220.922 311.382 219.855 313.954 218.789 316.527H231.865ZM281.021 325.846V299.084C281.021 298.001 280.598 297.307 279.752 297.002C278.923 296.697 278.508 296.325 278.508 295.885C278.508 295.529 278.677 295.352 279.016 295.352H285.49C285.846 295.352 286.023 295.529 286.023 295.885C286.023 296.325 285.6 296.697 284.754 297.002C283.908 297.307 283.484 298.001 283.484 299.084L283.459 332.092L278.965 331L254.641 300.811V327.293C254.641 328.393 255.064 329.096 255.91 329.4C256.757 329.688 257.18 330.044 257.18 330.467C257.18 330.822 257.002 331 256.646 331H250.197C249.842 331 249.664 330.822 249.664 330.467C249.664 330.044 250.087 329.688 250.934 329.4C251.78 329.096 252.203 328.393 252.203 327.293V299.084C252.203 298.001 251.78 297.307 250.934 297.002C250.087 296.697 249.664 296.325 249.664 295.885C249.664 295.529 249.842 295.352 250.197 295.352H256.723L281.021 325.846ZM331.092 299.084V327.293C331.092 328.393 331.515 329.096 332.361 329.4C333.225 329.688 333.656 330.044 333.656 330.467C333.656 330.822 333.479 331 333.123 331H324.516C324.16 331 323.982 330.822 323.982 330.467C323.982 330.044 324.406 329.688 325.252 329.4C326.098 329.096 326.521 328.393 326.521 327.293V300.1L311.871 331.762H310.881L296.383 301.293V327.293C296.383 328.393 296.806 329.096 297.652 329.4C298.499 329.688 298.922 330.044 298.922 330.467C298.922 330.822 298.744 331 298.389 331H291.939C291.584 331 291.406 330.822 291.406 330.467C291.406 330.044 291.829 329.688 292.676 329.4C293.522 329.096 293.945 328.393 293.945 327.293V299.084C293.945 298.001 293.522 297.307 292.676 297.002C291.829 296.697 291.406 296.325 291.406 295.885C291.406 295.529 291.584 295.352 291.939 295.352H298.693L312.582 323.84L326.039 295.352H333.123C333.479 295.352 333.656 295.529 333.656 295.885C333.656 296.325 333.225 296.697 332.361 297.002C331.515 297.307 331.092 298.001 331.092 299.084ZM357.727 294.768C358.573 296.765 359.614 299.211 360.85 302.105C362.102 305 363.389 307.979 364.709 311.043C366.046 314.107 367.333 317.086 368.568 319.98C369.821 322.875 370.879 325.312 371.742 327.293C371.996 327.919 372.495 328.486 373.24 328.994C373.63 329.248 374.01 329.46 374.383 329.629C374.772 329.798 375.085 329.959 375.322 330.111C375.492 330.23 375.602 330.348 375.652 330.467C375.686 330.535 375.703 330.602 375.703 330.67C375.703 330.721 375.686 330.78 375.652 330.848C375.602 330.949 375.5 331 375.348 331H366.766C366.613 331 366.461 330.949 366.309 330.848C366.139 330.729 366.038 330.602 366.004 330.467C365.97 330.416 365.953 330.365 365.953 330.314C365.953 330.162 366.055 330.001 366.258 329.832C366.41 329.68 366.596 329.519 366.816 329.35C367.036 329.18 367.197 328.952 367.299 328.664C367.35 328.529 367.375 328.376 367.375 328.207C367.375 327.919 367.307 327.606 367.172 327.268L363.414 318.584H348.611C348.002 320.04 347.393 321.495 346.783 322.951C346.191 324.39 345.59 325.829 344.98 327.268C344.828 327.606 344.743 327.911 344.727 328.182C344.71 328.3 344.701 328.419 344.701 328.537C344.701 328.706 344.727 328.867 344.777 329.02C344.828 329.24 344.913 329.426 345.031 329.578C345.15 329.714 345.234 329.857 345.285 330.01C345.302 330.145 345.311 330.238 345.311 330.289C345.311 330.34 345.294 330.399 345.26 330.467C345.141 330.822 344.955 331 344.701 331H338.15C337.981 331 337.863 330.949 337.795 330.848C337.795 330.831 337.778 330.788 337.744 330.721C337.744 330.687 337.761 330.602 337.795 330.467C337.896 330.247 338.184 330.027 338.658 329.807C338.912 329.688 339.183 329.561 339.471 329.426C339.775 329.273 340.08 329.096 340.385 328.893C341.011 328.452 341.468 327.919 341.756 327.293L356.152 294.768H357.727ZM362.525 316.527L355.898 301.064C354.815 303.654 353.732 306.236 352.648 308.809C351.582 311.382 350.516 313.954 349.449 316.527H362.525ZM385.377 313.811L376.516 299.059C376.126 298.483 375.475 297.916 374.561 297.357C374.087 297.104 373.63 296.9 373.189 296.748C372.766 296.579 372.419 296.41 372.148 296.24C371.962 296.139 371.818 296.02 371.717 295.885C371.649 295.783 371.615 295.69 371.615 295.605V295.504C371.632 295.402 371.717 295.352 371.869 295.352H380.477C380.646 295.352 380.807 295.402 380.959 295.504C381.145 295.622 381.289 295.749 381.391 295.885C381.441 295.969 381.467 296.054 381.467 296.139C381.467 296.257 381.408 296.384 381.289 296.52C381.171 296.672 381.027 296.841 380.857 297.027C380.688 297.197 380.595 297.408 380.578 297.662V297.789C380.578 298.161 380.714 298.542 380.984 298.932L389.541 312.49L396.117 302.461C396.608 301.716 396.896 301.073 396.98 300.531C396.997 300.447 397.006 300.362 397.006 300.277C397.006 299.77 396.803 299.109 396.396 298.297L395.533 296.57L399.164 294.996C399.283 294.945 399.393 294.92 399.494 294.92C399.714 294.92 399.917 295.055 400.104 295.326L401.627 297.891C401.813 298.212 401.906 298.534 401.906 298.855C401.906 299.431 401.618 300.015 401.043 300.607C400.146 301.555 399.189 302.766 398.174 304.238L391.42 314.09C391.115 314.547 390.912 315.19 390.811 316.02C390.726 316.849 390.684 317.636 390.684 318.381V327.293C390.684 328.393 391.107 329.096 391.953 329.4C392.799 329.688 393.223 330.044 393.223 330.467C393.223 330.822 393.045 331 392.689 331H384.082C383.727 331 383.549 330.822 383.549 330.467C383.549 330.044 383.972 329.688 384.818 329.4C385.665 329.096 386.088 328.393 386.088 327.293V316.451C386.088 315.469 385.851 314.589 385.377 313.811ZM421.66 294.768C422.507 296.765 423.548 299.211 424.783 302.105C426.036 305 427.322 307.979 428.643 311.043C429.98 314.107 431.266 317.086 432.502 319.98C433.755 322.875 434.812 325.312 435.676 327.293C435.93 327.919 436.429 328.486 437.174 328.994C437.563 329.248 437.944 329.46 438.316 329.629C438.706 329.798 439.019 329.959 439.256 330.111C439.425 330.23 439.535 330.348 439.586 330.467C439.62 330.535 439.637 330.602 439.637 330.67C439.637 330.721 439.62 330.78 439.586 330.848C439.535 330.949 439.434 331 439.281 331H430.699C430.547 331 430.395 330.949 430.242 330.848C430.073 330.729 429.971 330.602 429.938 330.467C429.904 330.416 429.887 330.365 429.887 330.314C429.887 330.162 429.988 330.001 430.191 329.832C430.344 329.68 430.53 329.519 430.75 329.35C430.97 329.18 431.131 328.952 431.232 328.664C431.283 328.529 431.309 328.376 431.309 328.207C431.309 327.919 431.241 327.606 431.105 327.268L427.348 318.584H412.545C411.936 320.04 411.326 321.495 410.717 322.951C410.124 324.39 409.523 325.829 408.914 327.268C408.762 327.606 408.677 327.911 408.66 328.182C408.643 328.3 408.635 328.419 408.635 328.537C408.635 328.706 408.66 328.867 408.711 329.02C408.762 329.24 408.846 329.426 408.965 329.578C409.083 329.714 409.168 329.857 409.219 330.01C409.236 330.145 409.244 330.238 409.244 330.289C409.244 330.34 409.227 330.399 409.193 330.467C409.075 330.822 408.889 331 408.635 331H402.084C401.915 331 401.796 330.949 401.729 330.848C401.729 330.831 401.712 330.788 401.678 330.721C401.678 330.687 401.695 330.602 401.729 330.467C401.83 330.247 402.118 330.027 402.592 329.807C402.846 329.688 403.117 329.561 403.404 329.426C403.709 329.273 404.014 329.096 404.318 328.893C404.945 328.452 405.402 327.919 405.689 327.293L420.086 294.768H421.66ZM426.459 316.527L419.832 301.064C418.749 303.654 417.665 306.236 416.582 308.809C415.516 311.382 414.449 313.954 413.383 316.527H426.459Z" fill="#0C1B9B"/>
<path d="M7.92 151.11V92.7H15.444V148.635L22.176 155.268H44.748L51.48 148.635V92.7H59.004V151.11L48.114 162H18.81L7.92 151.11ZM92.4443 133.092L68.3873 92.7H76.5053L96.1073 126.261H96.3053L115.907 92.7H124.025L99.9683 133.092V162H92.4443V133.092ZM129.423 151.11V103.59L140.313 92.7H170.607L181.101 103.194V109.53H173.577V105.669L167.241 99.432H143.679L136.947 106.065V148.635L143.679 155.268H166.845L173.577 148.635V132.597H157.935V125.865H181.101V151.11L170.211 162H140.313L129.423 151.11ZM194.995 151.11V92.7H202.519V148.635L209.251 155.268H231.823L238.555 148.635V92.7H246.079V151.11L235.189 162H205.885L194.995 151.11ZM261.898 92.7H269.224L305.359 149.724H305.557V92.7H312.685V162H305.359L269.224 104.976H269.026V162H261.898V92.7Z" fill="#1E25C9"/>
<path d="M9.96094 379.148H37.8516C40.2734 379.148 42.9297 379.246 45.8203 379.441C48.75 379.598 51.6797 379.949 54.6094 380.496C57.5391 381.004 60.3711 381.746 63.1055 382.723C65.8398 383.66 68.2617 384.91 70.3711 386.473C72.5195 387.996 74.2188 389.891 75.4688 392.156C76.7578 394.383 77.4023 397.039 77.4023 400.125C77.4023 401.961 77.1875 403.797 76.7578 405.633C76.3281 407.43 75.5469 409.09 74.4141 410.613C73.3203 412.137 71.7969 413.465 69.8438 414.598C67.9297 415.73 65.4688 416.531 62.4609 417C65.7422 417.195 68.6523 417.957 71.1914 419.285C73.7695 420.574 75.9375 422.195 77.6953 424.148C79.4531 426.102 80.7812 428.27 81.6797 430.652C82.6172 432.996 83.0859 435.32 83.0859 437.625C83.0859 440.711 82.4609 443.719 81.2109 446.648C79.9609 449.539 77.8516 452.137 74.8828 454.441C71.9531 456.707 68.0664 458.543 63.2227 459.949C58.3789 461.316 52.3633 462 45.1758 462H9.96094V379.148ZM36.2109 447H46.8164C50.1758 447 52.6758 446.141 54.3164 444.422C55.9961 442.664 56.8359 440.398 56.8359 437.625C56.8359 435.984 56.543 434.578 55.957 433.406C55.4102 432.234 54.375 431.277 52.8516 430.535C51.3281 429.754 49.2188 429.188 46.5234 428.836C43.8672 428.445 40.4297 428.25 36.2109 428.25V447ZM44.4141 413.25C46.25 413.25 47.9297 412.996 49.4531 412.488C50.9766 411.941 52.2852 411.238 53.3789 410.379C54.4727 409.52 55.3125 408.523 55.8984 407.391C56.5234 406.258 56.8359 405.086 56.8359 403.875C56.8359 402 56.4648 400.457 55.7227 399.246C54.9805 398.035 53.7891 397.078 52.1484 396.375C50.5078 395.672 48.3789 395.184 45.7617 394.91C43.1445 394.637 39.9609 394.5 36.2109 394.5V413.25H44.4141ZM171.973 462H140.684L136.816 444.363H116.25L112.559 462H91.4062L112.5 379.148H149.18L171.973 462ZM126.797 392.039L118.77 430.652H135.527L128.613 392.039H126.797ZM241.699 400.652C240.098 399.949 238.223 399.246 236.074 398.543C233.965 397.801 231.738 397.137 229.395 396.551C227.09 395.965 224.746 395.496 222.363 395.145C219.98 394.754 217.734 394.559 215.625 394.559C211.953 394.559 209.082 395.027 207.012 395.965C204.941 396.902 203.906 398.484 203.906 400.711C203.906 401.766 204.258 402.703 204.961 403.523C205.703 404.305 206.738 405.047 208.066 405.75C209.395 406.414 210.977 407.078 212.812 407.742C214.688 408.367 216.758 409.031 219.023 409.734L223.301 411.082C226.895 412.176 230.117 413.504 232.969 415.066C235.82 416.59 238.223 418.406 240.176 420.516C242.168 422.586 243.691 424.969 244.746 427.664C245.801 430.359 246.328 433.426 246.328 436.863C246.328 440.887 245.684 444.559 244.395 447.879C243.145 451.16 241.172 453.973 238.477 456.316C235.781 458.66 232.324 460.477 228.105 461.766C223.926 463.055 218.887 463.699 212.988 463.699C207.754 463.699 202.539 463.27 197.344 462.41C192.188 461.551 186.973 460.047 181.699 457.898V438.562C186.738 441.141 191.621 443.035 196.348 444.246C201.113 445.418 205.801 446.004 210.41 446.004C214.199 446.004 216.953 445.398 218.672 444.188C220.43 442.977 221.309 441.297 221.309 439.148C221.309 437.859 220.977 436.766 220.312 435.867C219.688 434.93 218.652 434.07 217.207 433.289C215.801 432.508 213.945 431.727 211.641 430.945C209.336 430.125 206.543 429.207 203.262 428.191C199.98 427.215 196.934 425.984 194.121 424.5C191.348 423.016 188.945 421.238 186.914 419.168C184.883 417.059 183.281 414.617 182.109 411.844C180.977 409.07 180.41 405.906 180.41 402.352C180.41 398.68 181.055 395.32 182.344 392.273C183.633 389.227 185.605 386.629 188.262 384.48C190.918 382.293 194.277 380.594 198.34 379.383C202.441 378.172 207.305 377.566 212.93 377.566C215.156 377.566 217.52 377.664 220.02 377.859C222.52 378.055 225.059 378.348 227.637 378.738C230.254 379.129 232.832 379.637 235.371 380.262C237.91 380.887 240.312 381.629 242.578 382.488L241.699 400.652ZM203.906 462H215.625V467.859C218.984 467.859 221.953 468.426 224.531 469.559C227.109 470.691 229.258 472.176 230.977 474.012C232.734 475.887 234.062 477.996 234.961 480.34C235.859 482.723 236.309 485.164 236.309 487.664C236.309 490.203 235.82 492.703 234.844 495.164C233.906 497.625 232.441 499.812 230.449 501.727C228.457 503.68 225.938 505.242 222.891 506.414C219.883 507.586 216.328 508.172 212.227 508.172C210.938 508.172 209.59 508.094 208.184 507.938C206.816 507.82 205.391 507.625 203.906 507.352V490.008C205.898 490.359 207.676 490.535 209.238 490.535C210.762 490.535 212.09 490.32 213.223 489.891C214.395 489.461 215.352 488.895 216.094 488.191C216.875 487.527 217.461 486.746 217.852 485.848C218.242 484.988 218.438 484.09 218.438 483.152C218.438 482.254 218.242 481.375 217.852 480.516C217.5 479.656 216.953 478.875 216.211 478.172C215.508 477.508 214.59 476.961 213.457 476.531C212.363 476.141 211.074 475.945 209.59 475.945C207.832 475.945 205.938 476.297 203.906 477V462ZM267.422 379.148H293.672V445.125H321.797V462H267.422V379.148ZM405.996 462H374.707L370.84 444.363H350.273L346.582 462H325.43L346.523 379.148H383.203L405.996 462ZM360.82 392.039L352.793 430.652H369.551L362.637 392.039H360.82ZM465.586 379.148H491.836L488.086 432H469.336L465.586 379.148ZM478.711 463.699C476.172 463.699 473.945 463.367 472.031 462.703C470.156 462.039 468.594 461.219 467.344 460.242C466.133 459.227 465.215 458.055 464.59 456.727C464.004 455.398 463.711 454.051 463.711 452.684C463.711 451.277 464.023 449.91 464.648 448.582C465.312 447.215 466.27 446.004 467.52 444.949C468.77 443.855 470.332 442.996 472.207 442.371C474.082 441.707 476.25 441.375 478.711 441.375C481.172 441.375 483.34 441.707 485.215 442.371C487.09 442.996 488.652 443.836 489.902 444.891C491.191 445.945 492.148 447.156 492.773 448.523C493.438 449.852 493.77 451.219 493.77 452.625C493.77 453.992 493.457 455.359 492.832 456.727C492.246 458.055 491.328 459.227 490.078 460.242C488.828 461.219 487.266 462.039 485.391 462.703C483.516 463.367 481.289 463.699 478.711 463.699Z" fill="#B2C4F4"/>
</svg>
