<svg width="1152" height="298" viewBox="0 0 1152 298" fill="none" xmlns="http://www.w3.org/2000/svg">
<path fill-rule="evenodd" clip-rule="evenodd" d="M0 89.4V29.8H28.8V208.6H57.6V268.2H86.4V0H115.2V119.2H144V298H172.8V119.2H201.6V208.6H230.4V178.8H259.2V149H288H316.8H345.6V29.8H374.4V178.8H403.2V208.6H432V298H460.8V29.8H489.6V59.6H518.4H547.2V89.4H576V238.4H604.8V119.2H633.6V59.6H662.4V149H691.2V238.4H720H748.8V89.4H777.6V29.8H806.4V298H835.2V208.6H864V268.2H892.8H921.6V89.4H950.4V59.6H979.2V119.2H1008V29.8H1036.8V238.4H1065.6V89.4H1094.4V59.6H1123.2V208.6H1152V298H1123.2H1094.4H1065.6H1036.8H1008H979.2H950.4H921.6H892.8H864H835.2H806.4H777.6H748.8H720H691.2H662.4H633.6H604.8H576H547.2H518.4H489.6H460.8H432H403.2H374.4H345.6H316.8H288H259.2H230.4H201.6H172.8H144H115.2H86.4H57.6H28.8H0V89.4Z" fill="url(#paint0_linear_198_19)"/>
<defs>
<linearGradient id="paint0_linear_198_19" x1="575.5" y1="169.24" x2="575.872" y2="298" gradientUnits="userSpaceOnUse">
<stop stop-color="#EBF0FC"/>
<stop offset="1" stop-color="#EBF0FC" stop-opacity="0"/>
</linearGradient>
</defs>
</svg>
