<svg width="72" height="72" viewBox="0 0 72 72" fill="none" xmlns="http://www.w3.org/2000/svg">
<path d="M36 0C16.119 0 0 16.119 0 36C0 42.7536 1.89702 49.0502 5.13281 54.4512L0.322266 72L18.2461 67.2949C23.4881 70.2752 29.5395 72 36 72C55.881 72 72 55.881 72 36C72 16.119 55.881 0 36 0ZM23.6777 19.207C24.2627 19.207 24.8638 19.2035 25.3828 19.2305C26.0248 19.2455 26.7236 19.2925 27.3926 20.7715C28.1876 22.5295 29.9186 26.9397 30.1406 27.3867C30.3626 27.8337 30.5199 28.3603 30.2109 28.9453C29.9169 29.5453 29.764 29.9085 29.332 30.4395C28.885 30.9555 28.3952 31.5963 27.9902 31.9863C27.5432 32.4333 27.0817 32.9235 27.5977 33.8145C28.1137 34.7055 29.9057 37.6264 32.5547 39.9844C35.9597 43.0264 38.8326 43.9612 39.7266 44.4082C40.6206 44.8552 41.1383 44.7855 41.6543 44.1855C42.1853 43.6005 43.8844 41.5932 44.4844 40.6992C45.0694 39.8052 45.6666 39.9599 46.4766 40.2539C47.2986 40.5479 51.6822 42.7073 52.5762 43.1543C53.4702 43.6013 54.0562 43.8225 54.2812 44.1855C54.5122 44.5605 54.5125 46.3457 53.7715 48.4277C53.0305 50.5067 49.3918 52.5172 47.7598 52.6582C46.1128 52.8112 44.5757 53.3985 37.0547 50.4375C27.9827 46.8645 22.2615 37.5727 21.8145 36.9727C21.3675 36.3877 18.1816 32.1417 18.1816 27.7617C18.1816 23.3667 20.486 21.2143 21.293 20.3203C22.115 19.4263 23.0777 19.207 23.6777 19.207Z" fill="#0C1B9B"/>
</svg>
